<svg xmlns="http://www.w3.org/2000/svg" viewBox="0 0 256 256" width="256" height="256">
  <rect width="256" height="256" fill="#000000"/>
  <!-- Space Invader pixel art -->
  <g fill="#00ff00">
    <!-- Row 1 -->
    <rect x="80" y="32" width="16" height="16"/>
    <rect x="160" y="32" width="16" height="16"/>

    <!-- Row 2 -->
    <rect x="96" y="48" width="16" height="16"/>
    <rect x="144" y="48" width="16" height="16"/>

    <!-- Row 3 -->
    <rect x="64" y="64" width="16" height="16"/>
    <rect x="80" y="64" width="16" height="16"/>
    <rect x="96" y="64" width="16" height="16"/>
    <rect x="112" y="64" width="16" height="16"/>
    <rect x="128" y="64" width="16" height="16"/>
    <rect x="144" y="64" width="16" height="16"/>
    <rect x="160" y="64" width="16" height="16"/>
    <rect x="176" y="64" width="16" height="16"/>

    <!-- Row 4 -->
    <rect x="48" y="80" width="16" height="16"/>
    <rect x="64" y="80" width="16" height="16"/>
    <rect x="80" y="80" width="16" height="16"/>
    <rect x="96" y="80" width="16" height="16"/>
    <rect x="112" y="80" width="16" height="16"/>
    <rect x="128" y="80" width="16" height="16"/>
    <rect x="144" y="80" width="16" height="16"/>
    <rect x="160" y="80" width="16" height="16"/>
    <rect x="176" y="80" width="16" height="16"/>
    <rect x="192" y="80" width="16" height="16"/>

    <!-- Row 5 -->
    <rect x="48" y="96" width="16" height="16"/>
    <rect x="64" y="96" width="16" height="16"/>
    <rect x="80" y="96" width="16" height="16"/>
    <rect x="96" y="96" width="16" height="16"/>
    <rect x="112" y="96" width="16" height="16"/>
    <rect x="128" y="96" width="16" height="16"/>
    <rect x="144" y="96" width="16" height="16"/>
    <rect x="160" y="96" width="16" height="16"/>
    <rect x="176" y="96" width="16" height="16"/>
    <rect x="192" y="96" width="16" height="16"/>

    <!-- Row 6 -->
    <rect x="48" y="112" width="16" height="16"/>
    <rect x="64" y="112" width="16" height="16"/>
    <rect x="80" y="112" width="16" height="16"/>
    <rect x="96" y="112" width="16" height="16"/>
    <rect x="112" y="112" width="16" height="16"/>
    <rect x="128" y="112" width="16" height="16"/>
    <rect x="144" y="112" width="16" height="16"/>
    <rect x="160" y="112" width="16" height="16"/>
    <rect x="176" y="112" width="16" height="16"/>
    <rect x="192" y="112" width="16" height="16"/>

    <!-- Row 7 -->
    <rect x="80" y="128" width="16" height="16"/>
    <rect x="96" y="128" width="16" height="16"/>
    <rect x="144" y="128" width="16" height="16"/>
    <rect x="160" y="128" width="16" height="16"/>

    <!-- Row 8 -->
    <rect x="64" y="144" width="16" height="16"/>
    <rect x="96" y="144" width="16" height="16"/>
    <rect x="144" y="144" width="16" height="16"/>
    <rect x="176" y="144" width="16" height="16"/>

    <!-- Arms -->
    <rect x="32" y="160" width="16" height="16"/>
    <rect x="48" y="176" width="16" height="16"/>
    <rect x="192" y="176" width="16" height="16"/>
    <rect x="208" y="160" width="16" height="16"/>

    <!-- "SWARM" text at bottom -->
    <text x="128" y="220" font-family="monospace" font-size="20" font-weight="bold" text-anchor="middle" fill="#00ff00">SWARM</text>
  </g>
</svg>
